%FSLAX42Y42*%
%MOMM*%
G71*
G01*
G75*
G04 Layer_Physical_Order=1*
G04 Layer_Color=255*
G04:AMPARAMS|DCode=10|XSize=1mm|YSize=1.1mm|CornerRadius=0.25mm|HoleSize=0mm|Usage=FLASHONLY|Rotation=270.000|XOffset=0mm|YOffset=0mm|HoleType=Round|Shape=RoundedRectangle|*
%AMROUNDEDRECTD10*
21,1,1.00,0.60,0,0,270.0*
21,1,0.50,1.10,0,0,270.0*
1,1,0.50,-0.30,-0.25*
1,1,0.50,-0.30,0.25*
1,1,0.50,0.30,0.25*
1,1,0.50,0.30,-0.25*
%
%ADD10ROUNDEDRECTD10*%
%ADD11R,4.00X4.00*%
%ADD12R,2.80X2.00*%
%ADD13R,2.80X2.80*%
%ADD14R,2.80X2.20*%
%ADD15C,0.50*%
D10*
X6150Y9738D02*
D03*
Y9562D02*
D03*
X6200Y8988D02*
D03*
Y8812D02*
D03*
X6250Y8538D02*
D03*
Y8362D02*
D03*
X6100Y8362D02*
D03*
Y8538D02*
D03*
D11*
X6150Y10250D02*
D03*
X5650D02*
D03*
X5150D02*
D03*
D12*
X5080Y8530D02*
D03*
Y8250D02*
D03*
D13*
X5375Y9690D02*
D03*
X5820Y9280D02*
D03*
D14*
Y8340D02*
D03*
Y8060D02*
D03*
D15*
X6345Y8895D02*
Y10055D01*
X6250Y8800D02*
X6345Y8895D01*
X6250Y8550D02*
Y8800D01*
Y8550D02*
X6262Y8538D01*
X6150Y10250D02*
X6345Y10055D01*
X6200Y8988D02*
Y9512D01*
X6150Y9562D02*
X6200Y9512D01*
X5738Y8900D02*
X6100Y8538D01*
X5400Y8900D02*
X5738D01*
X5100Y9200D02*
X5400Y8900D01*
X5100Y9200D02*
Y10200D01*
X5150Y10250D01*
X5680Y9280D02*
X5868D01*
X6150Y9562D01*
X5467Y9738D02*
X6150D01*
X5375Y9830D02*
X5467Y9738D01*
X5650Y10105D02*
Y10250D01*
X5375Y9830D02*
X5650Y10105D01*
X5702Y8362D02*
X6250D01*
M02*
