%FSLAX42Y42*%
%MOMM*%
G71*
G01*
G75*
G04 Layer_Color=8421504*
%ADD10R,2.80X2.20*%
%ADD11R,2.80X2.80*%
%ADD12R,2.80X2.00*%
G04:AMPARAMS|DCode=13|XSize=1mm|YSize=1.1mm|CornerRadius=0.25mm|HoleSize=0mm|Usage=FLASHONLY|Rotation=270.000|XOffset=0mm|YOffset=0mm|HoleType=Round|Shape=RoundedRectangle|*
%AMROUNDEDRECTD13*
21,1,1.00,0.60,0,0,270.0*
21,1,0.50,1.10,0,0,270.0*
1,1,0.50,-0.30,-0.25*
1,1,0.50,-0.30,0.25*
1,1,0.50,0.30,0.25*
1,1,0.50,0.30,-0.25*
%
%ADD13ROUNDEDRECTD13*%
%ADD14R,4.00X4.00*%
%ADD15C,0.50*%
%ADD16C,0.25*%
%ADD17C,0.15*%
%ADD18C,0.13*%
%ADD19C,0.05*%
%ADD20C,0.20*%
D10*
X5820Y8060D02*
D03*
Y8340D02*
D03*
D11*
Y9280D02*
D03*
X5375Y9690D02*
D03*
D12*
X5080Y8250D02*
D03*
Y8530D02*
D03*
D13*
X6150Y9738D02*
D03*
Y9562D02*
D03*
X6200Y8988D02*
D03*
Y8812D02*
D03*
X6250Y8538D02*
D03*
Y8362D02*
D03*
X6100Y8362D02*
D03*
Y8538D02*
D03*
D14*
X6150Y10250D02*
D03*
X5650D02*
D03*
X5150D02*
D03*
D16*
X6400Y6909D02*
Y7860D01*
X4910Y6909D02*
Y7860D01*
X4656Y6934D02*
X4910D01*
X6400D02*
X6654D01*
X4758Y6985D02*
X4910Y6934D01*
X4758Y6883D02*
X4910Y6934D01*
X6400D02*
X6552Y6883D01*
X6400Y6934D02*
X6552Y6985D01*
X4039Y10500D02*
X4870D01*
X4039Y7900D02*
X4870D01*
X4064Y9898D02*
Y10500D01*
Y7900D02*
Y8420D01*
X4013Y10348D02*
X4064Y10500D01*
X4115Y10348D01*
X4064Y7900D02*
X4115Y8052D01*
X4013D02*
X4064Y7900D01*
D17*
X4929Y6467D02*
X4980D01*
X4954D01*
Y6619D01*
X4929Y6594D01*
X5132Y6467D02*
Y6619D01*
X5056Y6543D01*
X5157D01*
X5233Y6442D02*
X5259Y6467D01*
Y6492D01*
X5233D01*
Y6467D01*
X5259D01*
X5233Y6442D01*
X5208Y6416D01*
X5360Y6492D02*
X5386Y6467D01*
X5437D01*
X5462Y6492D01*
Y6594D01*
X5437Y6619D01*
X5386D01*
X5360Y6594D01*
Y6569D01*
X5386Y6543D01*
X5462D01*
X5513Y6594D02*
X5538Y6619D01*
X5589D01*
X5614Y6594D01*
Y6492D01*
X5589Y6467D01*
X5538D01*
X5513Y6492D01*
Y6594D01*
X5665Y6569D02*
Y6492D01*
X5691Y6467D01*
X5767D01*
Y6442D01*
X5741Y6416D01*
X5716D01*
X5767Y6467D02*
Y6569D01*
X5868Y6467D02*
X5817Y6518D01*
Y6569D01*
X5868Y6619D01*
X5944Y6467D02*
Y6569D01*
X5970D01*
X5995Y6543D01*
Y6467D01*
Y6543D01*
X6021Y6569D01*
X6046Y6543D01*
Y6467D01*
X6097D02*
Y6569D01*
X6122D01*
X6148Y6543D01*
Y6467D01*
Y6543D01*
X6173Y6569D01*
X6198Y6543D01*
Y6467D01*
X6249D02*
X6300Y6518D01*
Y6569D01*
X6249Y6619D01*
X4181Y8563D02*
Y8461D01*
X4079Y8563D01*
X4054D01*
X4028Y8537D01*
Y8486D01*
X4054Y8461D01*
X4028Y8715D02*
X4054Y8664D01*
X4105Y8613D01*
X4155D01*
X4181Y8639D01*
Y8690D01*
X4155Y8715D01*
X4130D01*
X4105Y8690D01*
Y8613D01*
X4206Y8791D02*
X4181Y8817D01*
X4155D01*
Y8791D01*
X4181D01*
Y8817D01*
X4206Y8791D01*
X4232Y8766D01*
X4054Y8918D02*
X4028Y8944D01*
Y8994D01*
X4054Y9020D01*
X4155D01*
X4181Y8994D01*
Y8944D01*
X4155Y8918D01*
X4054D01*
Y9070D02*
X4028Y9096D01*
Y9147D01*
X4054Y9172D01*
X4155D01*
X4181Y9147D01*
Y9096D01*
X4155Y9070D01*
X4054D01*
X4079Y9223D02*
X4155D01*
X4181Y9248D01*
Y9324D01*
X4206D01*
X4232Y9299D01*
Y9274D01*
X4181Y9324D02*
X4079D01*
X4181Y9426D02*
X4130Y9375D01*
X4079D01*
X4028Y9426D01*
X4181Y9502D02*
X4079D01*
Y9528D01*
X4105Y9553D01*
X4181D01*
X4105D01*
X4079Y9578D01*
X4105Y9604D01*
X4181D01*
Y9654D02*
X4079D01*
Y9680D01*
X4105Y9705D01*
X4181D01*
X4105D01*
X4079Y9731D01*
X4105Y9756D01*
X4181D01*
Y9807D02*
X4130Y9858D01*
X4079D01*
X4028Y9807D01*
M02*
