%FSTAX42Y42*%
%MOMM*%
%SFA1B1*%

%IPPOS*%
%ADD18C,0.250000*%
%ADD26C,0.150000*%
%LNpcb1-1*%
%LPD*%
G54D18*
X004899Y010499D02*
X006399D01*
Y007899D02*
Y010499D01*
X004899Y007899D02*
X006399D01*
X004899D02*
Y010499D01*
X006399Y006908D02*
Y007859D01*
X004909Y006908D02*
Y007859D01*
X004655Y006933D02*
X004909D01*
X006399D02*
X006653D01*
X004757Y006985D02*
X004909Y006933D01*
X004757Y006882D02*
X004909Y006933D01*
X006399D02*
X006551Y006882D01*
X006399Y006933D02*
X006551Y006985D01*
X004038Y010499D02*
X004869D01*
X004038Y007899D02*
X004869D01*
X004064Y009897D02*
Y010499D01*
Y007899D02*
Y008419D01*
X004012Y010347D02*
X004064Y010499D01*
X004114Y010347*
X004064Y007899D02*
X004114Y008051D01*
X004012D02*
X004064Y007899D01*
G54D26*
X004928Y006466D02*
X004979D01*
X004953*
Y006618*
X004928Y006593*
X005131Y006466D02*
Y006618D01*
X005055Y006542*
X005156*
X005232Y006441D02*
X005258Y006466D01*
Y006491*
X005232*
Y006466*
X005258*
X005232Y006441*
X005207Y006415*
X005359Y006491D02*
X005385Y006466D01*
X005436*
X005461Y006491*
Y006593*
X005436Y006618*
X005385*
X005359Y006593*
Y006568*
X005385Y006542*
X005461*
X005512Y006593D02*
X005537Y006618D01*
X005588*
X005613Y006593*
Y006491*
X005588Y006466*
X005537*
X005512Y006491*
Y006593*
X005664Y006568D02*
Y006491D01*
X00569Y006466*
X005766*
Y006441*
X00574Y006415*
X005715*
X005766Y006466D02*
Y006568D01*
X005867Y006466D02*
X005816Y006517D01*
Y006568*
X005867Y006618*
X005943Y006466D02*
Y006568D01*
X005969*
X005994Y006542*
Y006466*
Y006542*
X00602Y006568*
X006045Y006542*
Y006466*
X006096D02*
Y006568D01*
X006121*
X006147Y006542*
Y006466*
Y006542*
X006172Y006568*
X006197Y006542*
Y006466*
X006248D02*
X006299Y006517D01*
Y006568*
X006248Y006618*
X00418Y008562D02*
Y00846D01*
X004078Y008562*
X004053*
X004027Y008536*
Y008485*
X004053Y00846*
X004027Y008714D02*
X004053Y008663D01*
X004104Y008612*
X004154*
X00418Y008638*
Y008689*
X004154Y008714*
X004129*
X004104Y008689*
Y008612*
X004205Y00879D02*
X00418Y008816D01*
X004154*
Y00879*
X00418*
Y008816*
X004205Y00879*
X004231Y008765*
X004053Y008917D02*
X004027Y008943D01*
Y008993*
X004053Y009019*
X004154*
X00418Y008993*
Y008943*
X004154Y008917*
X004053*
Y009069D02*
X004027Y009095D01*
Y009146*
X004053Y009171*
X004154*
X00418Y009146*
Y009095*
X004154Y009069*
X004053*
X004078Y009222D02*
X004154D01*
X00418Y009247*
Y009323*
X004205*
X004231Y009298*
Y009273*
X00418Y009323D02*
X004078D01*
X00418Y009425D02*
X004129Y009374D01*
X004078*
X004027Y009425*
X00418Y009501D02*
X004078D01*
Y009527*
X004104Y009552*
X00418*
X004104*
X004078Y009577*
X004104Y009603*
X00418*
Y009653D02*
X004078D01*
Y009679*
X004104Y009704*
X00418*
X004104*
X004078Y00973*
X004104Y009755*
X00418*
Y009806D02*
X004129Y009857D01*
X004078*
X004027Y009806*
M02*