%FSTAX42Y42*%
%MOMM*%
%SFA1B1*%

%IPPOS*%
%AMD10*
4,1,8,0.551180,-0.248920,0.551180,0.248920,0.299720,0.500380,-0.299720,0.500380,-0.551180,0.248920,-0.551180,-0.248920,-0.299720,-0.500380,0.299720,-0.500380,0.551180,-0.248920,0.0*
1,1,0.500000,0.299720,-0.248920*
1,1,0.500000,0.299720,0.248920*
1,1,0.500000,-0.299720,0.248920*
1,1,0.500000,-0.299720,-0.248920*
%
G04~CAMADD=10~8~0.0~0.0~393.7~433.1~98.4~0.0~15~0.0~0.0~0.0~0.0~0~0.0~0.0~0.0~0.0~0~0.0~0.0~0.0~270.0~434.0~394.0*
%ADD10D10*%
%ADD11R,3.999992X3.999992*%
%ADD12R,2.799994X1.999996*%
%ADD13R,2.799994X2.799994*%
%ADD14R,2.799994X2.199996*%
%ADD15C,0.499999*%
%LNpcb1-1*%
%LPD*%
G54D10*
X006149Y009737D03*
Y009561D03*
X006199Y008987D03*
Y008811D03*
X006249Y008537D03*
Y008361D03*
X006099D03*
Y008537D03*
G54D11*
X006149Y010249D03*
X005649D03*
X005149D03*
G54D12*
X00508Y008529D03*
Y008249D03*
G54D13*
X005374Y009689D03*
X005819Y009279D03*
G54D14*
X005819Y008339D03*
Y008059D03*
G54D15*
X006344Y008894D02*
Y010054D01*
X006249Y008799D02*
X006344Y008894D01*
X006249Y008549D02*
Y008799D01*
Y008549D02*
X006261Y008537D01*
X006149Y010249D02*
X006344Y010054D01*
X006199Y008987D02*
Y009511D01*
X006149Y009561D02*
X006199Y009511D01*
X005737Y008899D02*
X006099Y008537D01*
X005399Y008899D02*
X005737D01*
X005099Y009199D02*
X005399Y008899D01*
X005099Y009199D02*
Y010199D01*
X005149Y010249*
X005679Y009279D02*
X005867D01*
X006149Y009561*
X005466Y009737D02*
X006149D01*
X005374Y009829D02*
X005466Y009737D01*
X005649Y010104D02*
Y010249D01*
X005374Y009829D02*
X005649Y010104D01*
X005701Y008361D02*
X006249D01*
M02*