%FSTAX42Y42*%
%MOMM*%
%SFA1B1*%

%IPPOS*%
%ADD16C,0.130000*%
%ADD17C,0.050000*%
%ADD18C,0.250000*%
%ADD19C,0.200000*%
%LNpcb1-1*%
%LPD*%
G54D16*
X006066Y009509D02*
D01*
X006066Y00951*
X006066Y00951*
X006066Y009511*
X006066Y009511*
X006066Y009512*
X006066Y009512*
X006066Y009513*
X006065Y009513*
X006065Y009514*
X006065Y009514*
X006065Y009514*
X006064Y009515*
X006064Y009515*
X006063Y009515*
X006063Y009516*
X006063Y009516*
X006062Y009516*
X006062Y009516*
X006061Y009516*
X006061Y009516*
X00606Y009516*
X00606Y009516*
X006059*
X006059Y009516*
X006058Y009516*
X006058Y009516*
X006057Y009516*
X006057Y009516*
X006056Y009516*
X006056Y009516*
X006056Y009515*
X006055Y009515*
X006055Y009515*
X006054Y009514*
X006054Y009514*
X006054Y009514*
X006054Y009513*
X006053Y009513*
X006053Y009512*
X006053Y009512*
X006053Y009511*
X006053Y009511*
X006053Y00951*
X006053Y00951*
X006052Y009509*
X006053Y009509*
X006053Y009509*
X006053Y009508*
X006053Y009508*
X006053Y009507*
X006053Y009507*
X006053Y009506*
X006054Y009506*
X006054Y009505*
X006054Y009505*
X006054Y009505*
X006055Y009504*
X006055Y009504*
X006056Y009504*
X006056Y009503*
X006056Y009503*
X006057Y009503*
X006057Y009503*
X006058Y009503*
X006058Y009503*
X006059Y009503*
X006059Y009503*
X00606*
X00606Y009503*
X006061Y009503*
X006061Y009503*
X006062Y009503*
X006062Y009503*
X006063Y009503*
X006063Y009503*
X006063Y009504*
X006064Y009504*
X006064Y009504*
X006065Y009505*
X006065Y009505*
X006065Y009505*
X006065Y009506*
X006066Y009506*
X006066Y009507*
X006066Y009507*
X006066Y009508*
X006066Y009508*
X006066Y009509*
X006066Y009509*
X006066Y009509*
X006116Y008759D02*
D01*
X006116Y00876*
X006116Y00876*
X006116Y008761*
X006116Y008761*
X006116Y008762*
X006116Y008762*
X006116Y008763*
X006115Y008763*
X006115Y008764*
X006115Y008764*
X006115Y008764*
X006114Y008765*
X006114Y008765*
X006113Y008765*
X006113Y008766*
X006113Y008766*
X006112Y008766*
X006112Y008766*
X006111Y008766*
X006111Y008766*
X00611Y008766*
X00611Y008766*
X006109*
X006109Y008766*
X006108Y008766*
X006108Y008766*
X006107Y008766*
X006107Y008766*
X006106Y008766*
X006106Y008766*
X006106Y008765*
X006105Y008765*
X006105Y008765*
X006104Y008764*
X006104Y008764*
X006104Y008764*
X006104Y008763*
X006103Y008763*
X006103Y008762*
X006103Y008762*
X006103Y008761*
X006103Y008761*
X006103Y00876*
X006103Y00876*
X006102Y008759*
X006103Y008759*
X006103Y008759*
X006103Y008758*
X006103Y008758*
X006103Y008757*
X006103Y008757*
X006103Y008756*
X006104Y008756*
X006104Y008755*
X006104Y008755*
X006104Y008755*
X006105Y008754*
X006105Y008754*
X006106Y008754*
X006106Y008753*
X006106Y008753*
X006107Y008753*
X006107Y008753*
X006108Y008753*
X006108Y008753*
X006109Y008753*
X006109Y008753*
X00611*
X00611Y008753*
X006111Y008753*
X006111Y008753*
X006112Y008753*
X006112Y008753*
X006113Y008753*
X006113Y008753*
X006113Y008754*
X006114Y008754*
X006114Y008754*
X006115Y008755*
X006115Y008755*
X006115Y008755*
X006115Y008756*
X006116Y008756*
X006116Y008757*
X006116Y008757*
X006116Y008758*
X006116Y008758*
X006116Y008759*
X006116Y008759*
X006116Y008759*
X006166Y008309D02*
D01*
X006166Y00831*
X006166Y00831*
X006166Y008311*
X006166Y008311*
X006166Y008312*
X006166Y008312*
X006166Y008313*
X006165Y008313*
X006165Y008314*
X006165Y008314*
X006165Y008314*
X006164Y008315*
X006164Y008315*
X006163Y008315*
X006163Y008316*
X006163Y008316*
X006162Y008316*
X006162Y008316*
X006161Y008316*
X006161Y008316*
X00616Y008316*
X00616Y008316*
X006159*
X006159Y008316*
X006158Y008316*
X006158Y008316*
X006157Y008316*
X006157Y008316*
X006156Y008316*
X006156Y008316*
X006156Y008315*
X006155Y008315*
X006155Y008315*
X006154Y008314*
X006154Y008314*
X006154Y008314*
X006154Y008313*
X006153Y008313*
X006153Y008312*
X006153Y008312*
X006153Y008311*
X006153Y008311*
X006153Y00831*
X006153Y00831*
X006152Y008309*
X006153Y008309*
X006153Y008309*
X006153Y008308*
X006153Y008308*
X006153Y008307*
X006153Y008307*
X006153Y008306*
X006154Y008306*
X006154Y008305*
X006154Y008305*
X006154Y008305*
X006155Y008304*
X006155Y008304*
X006156Y008304*
X006156Y008303*
X006156Y008303*
X006157Y008303*
X006157Y008303*
X006158Y008303*
X006158Y008303*
X006159Y008303*
X006159Y008303*
X00616*
X00616Y008303*
X006161Y008303*
X006161Y008303*
X006162Y008303*
X006162Y008303*
X006163Y008303*
X006163Y008303*
X006163Y008304*
X006164Y008304*
X006164Y008304*
X006165Y008305*
X006165Y008305*
X006165Y008305*
X006165Y008306*
X006166Y008306*
X006166Y008307*
X006166Y008307*
X006166Y008308*
X006166Y008308*
X006166Y008309*
X006166Y008309*
X006166Y008309*
X006196Y008589D02*
D01*
X006196Y00859*
X006196Y00859*
X006196Y008591*
X006196Y008591*
X006196Y008592*
X006196Y008592*
X006196Y008593*
X006195Y008593*
X006195Y008594*
X006195Y008594*
X006195Y008594*
X006194Y008595*
X006194Y008595*
X006193Y008595*
X006193Y008596*
X006193Y008596*
X006192Y008596*
X006192Y008596*
X006191Y008596*
X006191Y008596*
X00619Y008596*
X00619Y008596*
X006189*
X006189Y008596*
X006188Y008596*
X006188Y008596*
X006187Y008596*
X006187Y008596*
X006186Y008596*
X006186Y008596*
X006186Y008595*
X006185Y008595*
X006185Y008595*
X006184Y008594*
X006184Y008594*
X006184Y008594*
X006184Y008593*
X006183Y008593*
X006183Y008592*
X006183Y008592*
X006183Y008591*
X006183Y008591*
X006183Y00859*
X006183Y00859*
X006182Y008589*
X006183Y008589*
X006183Y008589*
X006183Y008588*
X006183Y008588*
X006183Y008587*
X006183Y008587*
X006183Y008586*
X006184Y008586*
X006184Y008585*
X006184Y008585*
X006184Y008585*
X006185Y008584*
X006185Y008584*
X006186Y008584*
X006186Y008583*
X006186Y008583*
X006187Y008583*
X006187Y008583*
X006188Y008583*
X006188Y008583*
X006189Y008583*
X006189Y008583*
X00619*
X00619Y008583*
X006191Y008583*
X006191Y008583*
X006192Y008583*
X006192Y008583*
X006193Y008583*
X006193Y008583*
X006193Y008584*
X006194Y008584*
X006194Y008584*
X006195Y008585*
X006195Y008585*
X006195Y008585*
X006195Y008586*
X006196Y008586*
X006196Y008587*
X006196Y008587*
X006196Y008588*
X006196Y008588*
X006196Y008589*
X006196Y008589*
X006196Y008589*
G54D17*
X006094Y009809D02*
D01*
X006093Y009809*
X006092Y009809*
X00609Y009809*
X006089Y009809*
X006088Y009808*
X006086Y009808*
X006085Y009807*
X006084Y009806*
X006083Y009806*
X006082Y009805*
X006081Y009804*
X00608Y009803*
X006079Y009802*
X006078Y009801*
X006077Y009799*
X006077Y009798*
X006076Y009797*
X006075Y009796*
X006075Y009794*
X006075Y009793*
X006075Y009792*
X006075Y00979*
X006074Y009789*
X006224D02*
D01*
X006224Y009791*
X006224Y009792*
X006224Y009794*
X006224Y009795*
X006223Y009796*
X006223Y009798*
X006222Y009799*
X006221Y0098*
X006221Y009801*
X00622Y009802*
X006219Y009803*
X006218Y009804*
X006217Y009805*
X006216Y009806*
X006214Y009807*
X006213Y009807*
X006212Y009808*
X006211Y009809*
X006209Y009809*
X006208Y009809*
X006207Y009809*
X006205Y009809*
X006204Y009809*
Y009489D02*
D01*
X006206Y00949*
X006207Y00949*
X006209Y00949*
X00621Y00949*
X006211Y009491*
X006213Y009491*
X006214Y009492*
X006215Y009493*
X006216Y009493*
X006217Y009494*
X006218Y009495*
X006219Y009496*
X00622Y009497*
X006221Y009498*
X006222Y009499*
X006222Y009501*
X006223Y009502*
X006224Y009503*
X006224Y009505*
X006224Y009506*
X006224Y009507*
X006224Y009509*
X006224Y009509*
X006074D02*
D01*
X006075Y009508*
X006075Y009507*
X006075Y009505*
X006075Y009504*
X006076Y009503*
X006076Y009501*
X006077Y0095*
X006078Y009499*
X006078Y009498*
X006079Y009497*
X00608Y009496*
X006081Y009495*
X006082Y009494*
X006083Y009493*
X006084Y009492*
X006086Y009492*
X006087Y009491*
X006088Y00949*
X00609Y00949*
X006091Y00949*
X006092Y00949*
X006094Y00949*
X006094Y009489*
X006144Y009059D02*
D01*
X006143Y009059*
X006142Y009059*
X00614Y009059*
X006139Y009059*
X006138Y009058*
X006136Y009058*
X006135Y009057*
X006134Y009056*
X006133Y009056*
X006132Y009055*
X006131Y009054*
X00613Y009053*
X006129Y009052*
X006128Y009051*
X006127Y009049*
X006127Y009048*
X006126Y009047*
X006125Y009046*
X006125Y009044*
X006125Y009043*
X006125Y009042*
X006125Y00904*
X006124Y009039*
X006274D02*
D01*
X006274Y009041*
X006274Y009042*
X006274Y009044*
X006274Y009045*
X006273Y009046*
X006273Y009048*
X006272Y009049*
X006271Y00905*
X006271Y009051*
X00627Y009052*
X006269Y009053*
X006268Y009054*
X006267Y009055*
X006266Y009056*
X006264Y009057*
X006263Y009057*
X006262Y009058*
X006261Y009059*
X006259Y009059*
X006258Y009059*
X006257Y009059*
X006255Y009059*
X006254Y009059*
Y008739D02*
D01*
X006256Y00874*
X006257Y00874*
X006259Y00874*
X00626Y00874*
X006261Y008741*
X006263Y008741*
X006264Y008742*
X006265Y008743*
X006266Y008743*
X006267Y008744*
X006268Y008745*
X006269Y008746*
X00627Y008747*
X006271Y008748*
X006272Y008749*
X006272Y008751*
X006273Y008752*
X006274Y008753*
X006274Y008755*
X006274Y008756*
X006274Y008757*
X006274Y008759*
X006274Y008759*
X006124D02*
D01*
X006125Y008758*
X006125Y008757*
X006125Y008755*
X006125Y008754*
X006126Y008753*
X006126Y008751*
X006127Y00875*
X006128Y008749*
X006128Y008748*
X006129Y008747*
X00613Y008746*
X006131Y008745*
X006132Y008744*
X006133Y008743*
X006134Y008742*
X006136Y008742*
X006137Y008741*
X006138Y00874*
X00614Y00874*
X006141Y00874*
X006142Y00874*
X006144Y00874*
X006144Y008739*
X006194Y008609D02*
D01*
X006193Y008609*
X006192Y008609*
X00619Y008609*
X006189Y008609*
X006188Y008608*
X006186Y008608*
X006185Y008607*
X006184Y008606*
X006183Y008606*
X006182Y008605*
X006181Y008604*
X00618Y008603*
X006179Y008602*
X006178Y008601*
X006177Y008599*
X006177Y008598*
X006176Y008597*
X006175Y008596*
X006175Y008594*
X006175Y008593*
X006175Y008592*
X006175Y00859*
X006174Y008589*
X006324D02*
D01*
X006324Y008591*
X006324Y008592*
X006324Y008594*
X006324Y008595*
X006323Y008596*
X006323Y008598*
X006322Y008599*
X006321Y0086*
X006321Y008601*
X00632Y008602*
X006319Y008603*
X006318Y008604*
X006317Y008605*
X006316Y008606*
X006314Y008607*
X006313Y008607*
X006312Y008608*
X006311Y008609*
X006309Y008609*
X006308Y008609*
X006307Y008609*
X006305Y008609*
X006304Y008609*
Y008289D02*
D01*
X006306Y00829*
X006307Y00829*
X006309Y00829*
X00631Y00829*
X006311Y008291*
X006313Y008291*
X006314Y008292*
X006315Y008293*
X006316Y008293*
X006317Y008294*
X006318Y008295*
X006319Y008296*
X00632Y008297*
X006321Y008298*
X006322Y008299*
X006322Y008301*
X006323Y008302*
X006324Y008303*
X006324Y008305*
X006324Y008306*
X006324Y008307*
X006324Y008309*
X006324Y008309*
X006174D02*
D01*
X006175Y008308*
X006175Y008307*
X006175Y008305*
X006175Y008304*
X006176Y008303*
X006176Y008301*
X006177Y0083*
X006178Y008299*
X006178Y008298*
X006179Y008297*
X00618Y008296*
X006181Y008295*
X006182Y008294*
X006183Y008293*
X006184Y008292*
X006186Y008292*
X006187Y008291*
X006188Y00829*
X00619Y00829*
X006191Y00829*
X006192Y00829*
X006194Y00829*
X006194Y008289*
X006154D02*
D01*
X006156Y00829*
X006157Y00829*
X006159Y00829*
X00616Y00829*
X006161Y008291*
X006163Y008291*
X006164Y008292*
X006165Y008293*
X006166Y008293*
X006167Y008294*
X006168Y008295*
X006169Y008296*
X00617Y008297*
X006171Y008298*
X006172Y008299*
X006172Y008301*
X006173Y008302*
X006174Y008303*
X006174Y008305*
X006174Y008306*
X006174Y008307*
X006174Y008309*
X006174Y008309*
X006024D02*
D01*
X006025Y008308*
X006025Y008307*
X006025Y008305*
X006025Y008304*
X006026Y008303*
X006026Y008301*
X006027Y0083*
X006028Y008299*
X006028Y008298*
X006029Y008297*
X00603Y008296*
X006031Y008295*
X006032Y008294*
X006033Y008293*
X006034Y008292*
X006036Y008292*
X006037Y008291*
X006038Y00829*
X00604Y00829*
X006041Y00829*
X006042Y00829*
X006044Y00829*
X006044Y008289*
Y008609D02*
D01*
X006043Y008609*
X006042Y008609*
X00604Y008609*
X006039Y008609*
X006038Y008608*
X006036Y008608*
X006035Y008607*
X006034Y008606*
X006033Y008606*
X006032Y008605*
X006031Y008604*
X00603Y008603*
X006029Y008602*
X006028Y008601*
X006027Y008599*
X006027Y008598*
X006026Y008597*
X006025Y008596*
X006025Y008594*
X006025Y008593*
X006025Y008592*
X006025Y00859*
X006024Y008589*
X006174D02*
D01*
X006174Y008591*
X006174Y008592*
X006174Y008594*
X006174Y008595*
X006173Y008596*
X006173Y008598*
X006172Y008599*
X006171Y0086*
X006171Y008601*
X00617Y008602*
X006169Y008603*
X006168Y008604*
X006167Y008605*
X006166Y008606*
X006164Y008607*
X006163Y008607*
X006162Y008608*
X006161Y008609*
X006159Y008609*
X006158Y008609*
X006157Y008609*
X006155Y008609*
X006154Y008609*
X006094Y009489D02*
X006204D01*
X006224Y009509D02*
Y009789D01*
X006094Y009809D02*
X006204D01*
X006074Y009509D02*
Y009789D01*
X006144Y008739D02*
X006254D01*
X006274Y008759D02*
Y009039D01*
X006144Y009059D02*
X006254D01*
X006124Y008759D02*
Y009039D01*
X006194Y008289D02*
X006304D01*
X006324Y008309D02*
Y008589D01*
X006194Y008609D02*
X006304D01*
X006174Y008309D02*
Y008589D01*
X006044Y008609D02*
X006154D01*
X006024Y008309D02*
Y008589D01*
X006044Y008289D02*
X006154D01*
X006174Y008309D02*
Y008589D01*
G54D18*
X005149Y007999D02*
Y008109D01*
X005449Y007999D02*
X005619D01*
X005159D02*
X005449D01*
X005149Y008669D02*
Y009519D01*
X005819*
Y008479D02*
Y009099D01*
Y009459D02*
Y009519D01*
X005451Y009451D02*
X0054D01*
X005425*
Y009324*
X0054Y009299*
X005374*
X005349Y009324*
X005501Y009299D02*
X005552D01*
X005527*
Y009451*
X005501Y009426*
X005449Y010001D02*
Y009849D01*
X005525*
X005551Y009874*
Y009976*
X005525Y010001*
X005449*
X005601D02*
Y009976D01*
X005652Y009925*
X005703Y009976*
Y010001*
X005652Y009925D02*
Y009849D01*
X005754D02*
Y010001D01*
X005855Y009849*
Y010001*
X004949D02*
Y009849D01*
X005025*
X005051Y009874*
Y0099*
X005025Y009925*
X004949*
X005025*
X005051Y009951*
Y009976*
X005025Y010001*
X004949*
X005101D02*
X005203D01*
Y009976*
X005101Y009874*
Y009849*
X005203*
X005254Y009925D02*
X005355D01*
X006099Y009099D02*
Y009251D01*
X006175*
X006201Y009226*
Y009175*
X006175Y00915*
X006099*
X00615D02*
X006201Y009099D01*
X006251D02*
X006302D01*
X006277*
Y009251*
X006251Y009226*
X005799Y009599D02*
Y009751D01*
X005875*
X005901Y009726*
Y009675*
X005875Y00965*
X005799*
X00585D02*
X005901Y009599D01*
X006053D02*
X005951D01*
X006053Y009701*
Y009726*
X006028Y009751*
X005977*
X005951Y009726*
X006099Y008049D02*
Y008201D01*
X006175*
X006201Y008176*
Y008125*
X006175Y0081*
X006099*
X00615D02*
X006201Y008049D01*
X006251Y008176D02*
X006277Y008201D01*
X006328*
X006353Y008176*
Y008151*
X006328Y008125*
X006302*
X006328*
X006353Y0081*
Y008074*
X006328Y008049*
X006277*
X006251Y008074*
X005849Y008649D02*
Y008801D01*
X005925*
X005951Y008776*
Y008725*
X005925Y0087*
X005849*
X0059D02*
X005951Y008649D01*
X006078D02*
Y008801D01*
X006001Y008725*
X006103*
G54D19*
X005949Y010001D02*
Y009849D01*
X006025*
X006051Y009874*
Y0099*
X006025Y009925*
X005949*
X006025*
X006051Y009951*
Y009976*
X006025Y010001*
X005949*
X006101D02*
X006203D01*
Y009976*
X006101Y009874*
Y009849*
X006203*
X006254Y009925D02*
X006355D01*
X006304Y009976D02*
Y009874D01*
M02*